<?xml version="1.0" standalone="no"?>
<svg xmlns="http://www.w3.org/2000/svg" viewBox="0 0 69 68" width="69" height="68"><g fill="#f1333f" color="#f1333f" transform="translate(12.026 0) scale(0.7586207) "><svg width="58.0" height="58.0" x="0.0" y="0.0" viewBox="0 0 58 58"><title></title><desc></desc><g stroke="none" stroke-width="1" fill="none" fill-rule="evenodd"><g transform="translate(-946.000000, -977.000000)" fill="currentColor"><g transform="translate(946.000000, 977.000000)"><path d="M9.333,8.9561 C11.703,10.5751 14.26,11.8671 16.934,12.8481 C18.535,8.3261 20.765,4.0311 23.557,0.5201 C17.801,1.6181 12.644,4.4181 8.633,8.3801 L9.333,8.9561 Z"></path><path d="M16.027,28 L28,28 L28,16.963 C24.645,16.873 21.35,16.355 18.19,15.39 C16.874,19.654 16.134,24.029 16.027,28"></path><path d="M39.8093,15.3894 C36.6483,16.3554 33.3543,16.8734 30.0003,16.9624 L30.0003,28.0004 L41.9733,28.0004 C41.8663,24.0284 41.1253,19.6534 39.8093,15.3894"></path><path d="M28,14.9628 L28,0.0248 C27.505,0.0418 27.013,0.0718 26.525,0.1128 C23.208,3.6628 20.603,8.4248 18.816,13.4928 C21.771,14.3878 24.857,14.8738 28,14.9628"></path><path d="M49.4089,8.4203 C45.3919,4.4363 40.2189,1.6223 34.4449,0.5203 C37.2339,4.0303 39.4639,8.3223 41.0639,12.8423 C43.7549,11.8533 46.3339,10.5473 48.7369,8.9033 L49.4089,8.4203 Z"></path><path d="M41.9752,42.3591 C44.7402,43.3961 47.3912,44.7521 49.8662,46.4461 L51.2452,47.5791 C55.2582,42.7831 57.7472,36.6741 57.9742,30.0001 L43.9722,30.0001 C43.8722,33.9171 43.1982,38.1761 41.9752,42.3591"></path><path d="M16.3082,14.7402 C13.4412,13.6922 10.6932,12.3052 8.1342,10.5532 L7.2612,9.8362 C2.9532,14.7172 0.2622,21.0512 0.0252,28.0002 L14.0272,28.0002 C14.1352,23.8002 14.9152,19.2092 16.3082,14.7402"></path><path d="M30,14.9628 C33.14,14.8738 36.223,14.3878 39.182,13.4888 C37.396,8.4228 34.792,3.6628 31.476,0.1128 C30.987,0.0718 30.495,0.0418 30,0.0258 L30,14.9628 Z"></path><path d="M28,57.9747 L28,42.0377 C24.749,42.1287 21.557,42.6487 18.502,43.6087 C20.292,49.0097 23.012,54.1267 26.525,57.8867 C27.013,57.9287 27.505,57.9577 28,57.9747"></path><path d="M16.6285,44.2659 C14.0495,45.2419 11.5755,46.5149 9.2625,48.0969 L8.0205,48.9899 C12.1135,53.2829 17.5025,56.3249 23.5565,57.4799 C20.5835,53.7399 18.2465,49.1109 16.6285,44.2659"></path><path d="M48.667,48.0439 C46.388,46.4859 43.937,45.2279 41.373,44.2599 C39.756,49.1069 37.418,53.7379 34.443,57.4799 C40.462,56.3319 45.824,53.3179 49.908,49.0639 L48.667,48.0439 Z"></path><path d="M16.0252,42.3608 C14.8022,38.1768 14.1272,33.9178 14.0272,29.9998 L0.0252,29.9998 C0.2522,36.6328 2.7092,42.7088 6.6792,47.4918 L8.1142,46.4598 C10.5992,44.7598 13.2562,43.3998 16.0252,42.3608"></path><path d="M49.8857,10.54 C47.3167,12.298 44.5627,13.688 41.6917,14.739 C43.0847,19.209 43.8647,23.8 43.9727,28 L57.9747,28 C57.7387,21.077 55.0657,14.765 50.7867,9.892 L49.8857,10.54 Z"></path><path d="M30,30 L30,40.037 C33.456,40.129 36.847,40.679 40.093,41.699 C41.239,37.725 41.874,33.688 41.973,30 L30,30 Z"></path><path d="M28,30 L16.027,30 C16.126,33.689 16.761,37.726 17.907,41.7 C21.155,40.679 24.546,40.129 28,40.037 L28,30 Z"></path><path d="M30,42.0372 L30,57.9752 C30.495,57.9582 30.987,57.9282 31.475,57.8872 C34.989,54.1262 37.71,49.0072 39.499,43.6052 C36.449,42.6492 33.256,42.1292 30,42.0372"></path></g></g></g></svg></g><path fill="#353434" fill-rule="nonzero" d="M3.11 5.80L3.11 15.75Q2.54 15.68 0.94 15.68L0.94 15.68L0 15.68L0 0.05Q0.75 0.09 1.65 0.09Q2.55 0.09 2.93 0L2.93 0L6.87 6.69L10.65 0Q11.03 0.09 12.08 0.09Q13.14 0.09 13.89 0.05L13.89 0.05L13.89 15.68L12.95 15.68Q11.34 15.68 10.78 15.75L10.78 15.75L10.78 5.25L6.95 12.11L3.11 5.80ZM25.77 14.95L25.77 14.95Q24.11 15.86 22.76 15.86Q21.41 15.86 20.45 15.60Q19.49 15.35 18.82 14.86L18.82 14.86Q17.46 13.86 17.46 11.98L17.46 11.98Q17.46 10.29 19.13 9.16L19.13 9.16Q20.93 7.95 24.02 7.95L24.02 7.95L24.49 7.96Q24.63 7.97 24.81 7.97Q24.98 7.98 25.13 8.00L25.13 8.00Q25.03 6.13 23.51 5.81L23.51 5.81Q23.00 5.71 22.44 5.71Q21.87 5.71 21.32 5.81Q20.78 5.91 20.26 6.07L20.26 6.07Q19.13 6.43 18.63 6.90L18.63 6.90L18.60 6.88L18.25 4.29Q20.32 3.20 22.78 3.20L22.78 3.20Q26.60 3.20 27.67 5.95L27.67 5.95Q28.01 6.83 28.01 7.93L28.01 7.93L28.01 12.18Q28.01 13.54 28.97 14.03L28.97 14.03L26.85 15.97Q26.18 15.62 25.77 14.95ZM25.14 12.56L25.14 10.11Q24.82 10.05 24.48 10.05L24.48 10.05L24.01 10.05Q21.42 10.05 20.72 11.20L20.72 11.20Q20.51 11.54 20.51 11.92Q20.51 12.29 20.64 12.58Q20.78 12.87 21.09 13.05L21.09 13.05Q21.70 13.41 22.90 13.41Q24.11 13.41 25.15 12.83L25.15 12.83Q25.14 12.70 25.14 12.56L25.14 12.56ZM34.75 7.49L34.75 14.18Q34.75 15.21 34.84 15.68L34.84 15.68L31.90 15.68L31.90 3.43L34.75 3.43L34.75 4.48Q36.29 3.20 38.05 3.20L38.05 3.20Q39.97 3.20 41.12 4.51Q42.27 5.81 42.27 7.95L42.27 7.95L42.27 12.61Q42.27 14.59 42.33 14.99Q42.39 15.39 42.49 15.50Q42.59 15.62 42.66 15.71L42.66 15.71L42.63 15.76Q41.68 15.68 41.25 15.68L41.25 15.68L40.43 15.68Q40.05 15.68 39.42 15.71L39.42 15.71L39.42 9.33Q39.42 5.89 37.34 5.89L37.34 5.89Q35.79 5.89 34.75 7.49L34.75 7.49ZM55.00 11.68L55.27 14.54Q53.95 15.86 51.15 15.86L51.15 15.86Q48.43 15.86 46.71 14.20L46.71 14.20Q44.96 12.53 44.96 9.75L44.96 9.75Q44.96 6.93 46.69 5.11L46.69 5.11Q48.52 3.20 51.57 3.20L51.57 3.20Q53.74 3.20 55.21 4.15L55.21 4.15L54.74 7.15L54.66 7.14Q54.09 6.46 53.47 6.25L53.47 6.25Q52.46 5.89 51.46 5.89Q50.45 5.89 49.88 6.15Q49.30 6.41 48.89 6.87L48.89 6.87Q48.07 7.80 48.07 9.35L48.07 9.35Q48.07 12.09 49.97 12.94L49.97 12.94Q50.63 13.22 51.36 13.22Q52.09 13.22 52.63 13.09Q53.18 12.96 53.63 12.74L53.63 12.74Q54.57 12.27 54.91 11.65L54.91 11.65L55.00 11.68ZM65.05 15.68L65.05 14.61Q63.55 15.86 61.78 15.86L61.78 15.86Q59.88 15.86 58.80 14.58L58.80 14.58Q57.77 13.34 57.77 11.17L57.77 11.17L57.77 6.52Q57.77 4.17 57.67 3.83Q57.57 3.48 57.53 3.39L57.53 3.39Q58.07 3.43 58.65 3.43L58.65 3.43L59.63 3.43Q60.01 3.43 60.64 3.40L60.64 3.40L60.64 10.18Q60.64 12.60 61.96 12.98L61.96 12.98Q62.36 13.10 62.82 13.10L62.82 13.10Q64.21 13.10 65.05 12.09L65.05 12.09L65.05 3.43L67.96 3.43L67.96 14.18Q67.96 15.21 68.05 15.68L68.05 15.68L65.05 15.68Z" transform="translate(0, 52)"></path></svg>