<svg id="Livello_1" data-name="Livello 1" xmlns="http://www.w3.org/2000/svg" viewBox="0 0 35.41 49.05"><defs><style>.cls-1{fill:#fff;}.cls-2{fill:#231f20;}.cls-3{fill:#ce0e2d;}</style></defs><rect class="cls-1" width="35.41" height="49.05"/><path class="cls-2" d="M6.37,26a1.15,1.15,0,1,1-1.14,1.16v0A1.14,1.14,0,0,1,6.37,26m0-.24a1.38,1.38,0,1,0,1.38,1.38h0A1.38,1.38,0,0,0,6.37,25.76Z"/><path class="cls-3" d="M29,26a1.15,1.15,0,1,1-.21,0A.74.74,0,0,1,29,26m0-.24a1.38,1.38,0,1,0,1.38,1.38h0A1.39,1.39,0,0,0,29,25.78Z"/><path class="cls-2" d="M10.05,28c0,.1-.1.21-.48.21H8.25V25.94H8v2.45h2.09V28Z"/><path class="cls-2" d="M10,25.94v.4h.07c0-.1.1-.21.48-.21h.54v2.26h.22V26.13h.56c.38,0,.44.11.48.21h.07v-.4Z"/><path class="cls-3" d="M20,25.94l-.89,2.24-.9-2.24h-.39V26c.09,0,.18.09.29.32L19,28.38h.31l.81-2c.11-.25.2-.32.3-.34V26Z"/><path class="cls-3" d="M26.72,27.05h-.5c-.32,0-.47-.14-.47-.42s.26-.51.79-.51a2.67,2.67,0,0,1,.4,0,.3.3,0,0,1,.32.21h.08V26h0a3.47,3.47,0,0,0-.78-.1c-.67,0-1,.24-1,.71s.23.63.69.63h.5c.31,0,.47.13.47.4s-.24.55-.74.55a2.57,2.57,0,0,1-.55-.06A.33.33,0,0,1,25.7,28h-.07v.35h0a3.4,3.4,0,0,0,.84.11c.67,0,1-.25,1-.75A.66.66,0,0,0,26.72,27.05Z"/><path class="cls-2" d="M15.62,25.94v2.45h1.93V28h-.07c-.05.1-.1.21-.48.21H15.84v-1h1.23V27H15.84V26.1H17c.38,0,.43.11.48.21h.07v-.4Z"/><path class="cls-3" d="M20.7,25.94v.4h.07c0-.1.1-.21.48-.21h1.16v.92H21.17v.19h1.24v1H21.25c-.38,0-.44-.11-.48-.21H20.7v.41h1.93v-2.5Z"/><path class="cls-2" d="M14.59,27.35a.71.71,0,0,0-.15-1.41H12.79V26c.1,0,.21.1.21.48v1.9h.22v-1h1.16l.55,1h.24Zm-1.37-.17V26.13h1.22a.52.52,0,0,1,.53.51h0a.53.53,0,0,1-.53.53H13.22Z"/><path class="cls-3" d="M23.71,25.94a.71.71,0,0,0-.15,1.41l-.57,1h.23l.55-1h1.16v1h.22v-1.9c0-.38.11-.43.21-.48V25.9Zm0,1.24a.52.52,0,0,1-.52-.52h0a.52.52,0,0,1,.52-.52h1.22v1.05Z"/><path class="cls-2" d="M17.5,20.84a2.08,2.08,0,0,0-1.84,1.74,1.1,1.1,0,0,1-.2.28.19.19,0,0,1-.14.09.17.17,0,0,1-.14,0A.65.65,0,0,1,15,22.8a2,2,0,0,0-.2-.21.57.57,0,0,0-.3-.15h-.17a.44.44,0,0,0-.16.06.71.71,0,0,0-.23.19l-.17.22a.45.45,0,0,1-.39.23.53.53,0,0,1-.25,0L12.9,23a1.06,1.06,0,0,0-.25-.09h-.27a1.09,1.09,0,0,1,.26.05,1,1,0,0,1,.23.11c.08.05.15.11.23.15a.84.84,0,0,0,.27.08.58.58,0,0,0,.29-.05,1,1,0,0,0,.23-.18,1.61,1.61,0,0,1,.38-.31h.18a.27.27,0,0,1,.16.1l.16.19a.8.8,0,0,0,.22.23.67.67,0,0,0,.18.07h.2a.66.66,0,0,0,.27-.12A2.08,2.08,0,0,0,17.2,24.9,1.92,1.92,0,0,1,16.05,23a1.6,1.6,0,0,1,1.65-1.54v-.95Z"/><polygon class="cls-3" points="18.24 22.86 19.04 22.43 18.14 22.55 18.53 21.73 17.87 22.35 17.7 21.46 17.7 24.27 17.87 23.38 18.53 24 18.14 23.18 19.04 23.3 18.24 22.86"/><polygon class="cls-2" points="17.16 22.86 16.36 23.3 17.27 23.18 16.88 24 17.54 23.38 17.7 24.27 17.7 21.46 17.54 22.35 16.88 21.73 17.27 22.55 16.36 22.43 17.16 22.86"/><path class="cls-3" d="M22.74,22.86a1,1,0,0,1-.23-.12l-.23-.14a.65.65,0,0,0-.27-.08.49.49,0,0,0-.29.05.76.76,0,0,0-.23.17,1.23,1.23,0,0,1-.37.31h-.19a.34.34,0,0,1-.16-.1l-.16-.2a.77.77,0,0,0-.22-.22.71.71,0,0,0-.18-.08H20a.66.66,0,0,0-.27.12,2.06,2.06,0,0,0-1.54-1.76,1.92,1.92,0,0,1,1.15,1.9,1.6,1.6,0,0,1-1.66,1.54h0v.95l.2-.33a2.07,2.07,0,0,0,1.84-1.71,1.1,1.1,0,0,1,.2-.28.42.42,0,0,1,.14-.09.17.17,0,0,1,.14,0,.43.43,0,0,1,.16.14l.2.2a.57.57,0,0,0,.3.15H21a.67.67,0,0,0,.39-.26c.06-.07.11-.15.17-.21a.49.49,0,0,1,.39-.24.7.7,0,0,1,.25.05l.23.12a1.09,1.09,0,0,0,.25.1,1.22,1.22,0,0,0,.27,0Z"/></svg>